<?xml version="1.0" encoding="iso-8859-1"?>
<!-- Generator: Adobe Illustrator 19.0.0, SVG Export Plug-In . SVG Version: 6.00 Build 0)  -->
<svg version="1.1" id="Capa_1" xmlns="http://www.w3.org/2000/svg" xmlns:xlink="http://www.w3.org/1999/xlink" x="0px" y="0px"
	 viewBox="0 0 512 512" style="enable-background:new 0 0 512 512;" xml:space="preserve">
<g>
	<g>
		<path d="M377.492,225.627h-43.39v17.356h43.39v156.203h-43.39v17.356h43.39c9.572,0,17.356-7.784,17.356-17.356V242.983
			C394.847,233.411,387.063,225.627,377.492,225.627z"/>
	</g>
</g>
<g>
	<g>
		<path d="M386.169,190.915h-52.068v17.356h52.068c14.353,0,26.034,11.681,26.034,26.034v173.559
			c0,14.353-11.681,26.034-26.034,26.034h-52.068v17.356h52.068c23.925,0,43.39-19.465,43.39-43.39V234.305
			C429.559,210.38,410.095,190.915,386.169,190.915z"/>
	</g>
</g>
<g>
	<g>
		<rect x="91.119" y="451.254" width="242.983" height="17.356"/>
	</g>
</g>
<g>
	<g>
		<rect x="177.898" y="173.559" width="156.203" height="17.356"/>
	</g>
</g>
<g>
	<g>
		<rect x="91.119" y="173.559" width="52.068" height="17.356"/>
	</g>
</g>
<g>
	<g>
		<path d="M212.61,208.271c-14.353,0-26.034,11.681-26.034,26.034v173.559c0,14.353,11.681,26.034,26.034,26.034
			s26.034-11.681,26.034-26.034V234.305C238.644,219.952,226.964,208.271,212.61,208.271z M221.288,407.864
			c0,4.79-3.896,8.678-8.678,8.678s-8.678-3.888-8.678-8.678V234.305c0-4.782,3.896-8.678,8.678-8.678s8.678,3.896,8.678,8.678
			V407.864z"/>
	</g>
</g>
<g>
	<g>
		<path d="M282.034,208.271c-14.353,0-26.034,11.681-26.034,26.034v173.559c0,14.353,11.681,26.034,26.034,26.034
			c14.353,0,26.034-11.681,26.034-26.034V234.305C308.068,219.952,296.387,208.271,282.034,208.271z M290.712,407.864
			c0,4.79-3.888,8.678-8.678,8.678c-4.79,0-8.678-3.888-8.678-8.678V234.305c0-4.782,3.888-8.678,8.678-8.678
			s8.678,3.896,8.678,8.678V407.864z"/>
	</g>
</g>
<g>
	<g>
		<path d="M143.186,208.271c-14.353,0-26.034,11.681-26.034,26.034v173.559c0,14.353,11.681,26.034,26.034,26.034
			c14.353,0,26.034-11.681,26.034-26.034V234.305C169.22,219.952,157.54,208.271,143.186,208.271z M151.864,407.864
			c0,4.79-3.896,8.678-8.678,8.678s-8.678-3.888-8.678-8.678V234.305c0-4.782,3.896-8.678,8.678-8.678s8.678,3.896,8.678,8.678
			V407.864z"/>
	</g>
</g>
<g>
	<g>
		<path d="M290.712,60.746H256C256,27.249,228.751,0,195.254,0c-33.497,0-60.746,27.249-60.746,60.746
			c-28.715,0-52.068,23.352-52.068,52.068h17.356c0-19.144,15.568-34.712,34.712-34.712h8.678c4.79,0,8.678-3.888,8.678-8.678
			v-8.678c0-23.925,19.465-43.39,43.39-43.39c23.925,0,43.39,19.465,43.39,43.39v8.678c0,4.79,3.888,8.678,8.678,8.678h43.39
			c19.144,0,34.712,15.568,34.712,34.712h17.356C342.78,84.098,319.427,60.746,290.712,60.746z"/>
	</g>
</g>
<g>
	<g>
		<path d="M334.102,130.169H177.898c-4.79,0-8.678,3.888-8.678,8.678v52.068c0,4.782-3.896,8.678-8.678,8.678
			s-8.678-3.896-8.678-8.678v-78.102h-17.356v17.356h-43.39c-4.79,0-8.678,3.888-8.678,8.678v364.475
			c0,4.799,3.888,8.678,8.678,8.678h242.983c4.799,0,8.678-3.879,8.678-8.678V138.847
			C342.78,134.057,338.901,130.169,334.102,130.169z M325.424,494.644H99.797V147.525h34.712v43.39
			c0,14.353,11.681,26.034,26.034,26.034c14.353,0,26.034-11.681,26.034-26.034v-43.39h138.847V494.644z"/>
	</g>
</g>
<g>
</g>
<g>
</g>
<g>
</g>
<g>
</g>
<g>
</g>
<g>
</g>
<g>
</g>
<g>
</g>
<g>
</g>
<g>
</g>
<g>
</g>
<g>
</g>
<g>
</g>
<g>
</g>
<g>
</g>
</svg>
