<?xml version="1.0" encoding="iso-8859-1"?>
<!-- Generator: Adobe Illustrator 19.0.0, SVG Export Plug-In . SVG Version: 6.00 Build 0)  -->
<svg version="1.1" id="Capa_1" xmlns="http://www.w3.org/2000/svg" xmlns:xlink="http://www.w3.org/1999/xlink" x="0px" y="0px"
	 viewBox="0 0 512 512" style="enable-background:new 0 0 512 512;" xml:space="preserve">
<g>
	<g>
		<path d="M365.667,0C310.61,0,260.759,30.408,235.316,79.91L128.753,329.392c-1.374,3.199-0.657,6.919,1.809,9.385l42.66,42.66
			c1.63,1.63,3.814,2.5,6.032,2.5c1.101,0,2.218-0.213,3.268-0.657l253.662-105.625c0.307-0.128,0.597-0.264,0.879-0.427
			c46.234-25.801,74.944-74.722,74.927-127.663v-3.242C511.989,65.636,446.353,0,365.667,0z M494.934,149.573
			c0.017,46.601-25.169,89.67-65.764,112.527L181.25,365.336l-34.546-34.546l104.038-243.62
			c22.251-43.248,66.284-70.107,114.925-70.107c71.276,0,129.267,57.983,129.267,129.267V149.573z"/>
	</g>
</g>
<g>
	<g>
		<path d="M185.277,381.436l-12.064-12.064L98.814,443.77c-2.918,2.918-3.327,7.525-0.964,10.912
			c3.029,4.343,4.624,9.436,4.616,14.718c-0.034,14.086-11.51,25.536-25.596,25.536c-0.017,0-0.043,0-0.06,0
			c-14.112-0.034-25.57-11.552-25.536-25.664c0-2.269-0.896-4.445-2.5-6.049c-1.596-1.604-3.771-2.5-6.032-2.5
			c-0.043-0.009-0.06-0.009-0.085,0c-5.264,0-10.332-1.596-14.641-4.607c-11.569-8.08-14.41-24.069-6.339-35.638
			c8.088-11.569,24.068-14.419,35.638-6.339c3.396,2.363,7.994,1.962,10.912-0.964l74.398-74.398l-12.064-12.064l-69.791,69.791
			c-18.446-8.677-41.047-3.046-53.094,14.214c-13.463,19.291-8.728,45.936,10.563,59.399c5.051,3.524,10.716,5.878,16.671,6.971
			C38.562,496.881,55.924,511.94,76.768,512c0.034,0,0.068,0,0.094,0c23.48,0,42.608-19.077,42.66-42.566
			c0.017-6.356-1.365-12.542-4.036-18.207L185.277,381.436z"/>
	</g>
</g>
<g>
	<g>
		<path d="M349.857,154.351C361.162,29.981,314.1,18.13,308.699,17.192l-3.182,16.765c0.375,0.085,37.225,10.221,27.345,118.85
			c-8.839,97.195,43.462,141.98,45.688,143.839l10.946-13.088C387.56,281.911,341.871,242.17,349.857,154.351z"/>
	</g>
</g>
<g>
	<g>
		<path d="M418.147,85.319c-23.522,0-42.66,19.137-42.66,42.66c0,23.522,19.137,42.66,42.66,42.66
			c23.514,0,42.66-19.137,42.66-42.66C460.806,104.456,441.669,85.319,418.147,85.319z M418.147,153.574
			c-14.112,0-25.596-11.484-25.596-25.596c0-14.112,11.484-25.596,25.596-25.596c14.112,0,25.596,11.484,25.596,25.596
			C443.742,142.09,432.258,153.574,418.147,153.574z"/>
	</g>
</g>
<g>
</g>
<g>
</g>
<g>
</g>
<g>
</g>
<g>
</g>
<g>
</g>
<g>
</g>
<g>
</g>
<g>
</g>
<g>
</g>
<g>
</g>
<g>
</g>
<g>
</g>
<g>
</g>
<g>
</g>
</svg>
