<svg height="512pt" viewBox="0 0 512.001 512" width="512pt" xmlns="http://www.w3.org/2000/svg"><path d="m464.867188 0h-140.703126c-25.652343 0-48.570312 15.3125-58.386718 39.007812-9.816406 23.699219-4.4375 50.734376 13.699218 68.875l51.714844 51.714844-26.992187 26.988282-69.726563-69.726563c-5.855468-5.855469-15.355468-5.855469-21.210937 0-5.859375 5.859375-5.859375 15.355469 0 21.214844l69.726562 69.726562-26.988281 26.988281-53.660156-53.660156c-5.855469-5.859375-15.355469-5.859375-21.210938 0-5.859375 5.855469-5.859375 15.355469 0 21.210938l53.65625 53.660156-26.984375 26.988281-37.59375-37.59375c-5.859375-5.859375-15.355469-5.859375-21.214843 0-5.855469 5.855469-5.855469 15.355469 0 21.210938l37.59375 37.59375-26.984376 26.988281-21.527343-21.527344c-5.859375-5.859375-15.355469-5.859375-21.214844 0-5.855469 5.859375-5.855469 15.355469 0 21.214844l21.527344 21.527344-1.066407 1.066406h-122.320312c-8.285156 0-15 6.714844-15 15 0 39 28.316406 71.515625 65.46875 78.0625 6.550781 37.152344 39.0625 65.46875 78.0625 65.46875 8.285156 0 15-6.714844 15-15v-122.320312l1.070312-1.066407 21.527344 21.527344c5.855469 5.855469 15.351563 5.859375 21.210938 0s5.859375-15.355469 0-21.214844l-21.527344-21.523437 26.988281-26.988282 37.59375 37.59375c5.855469 5.855469 15.355469 5.859376 21.210938 0 5.859375-5.859374 5.859375-15.355468 0-21.214843l-37.59375-37.59375 26.988281-26.984375 53.660156 53.660156c2.929688 2.925781 6.769532 4.390625 10.605469 4.390625 3.839844 0 7.679687-1.460937 10.605469-4.390625 5.859375-5.859375 5.859375-15.355469 0-21.214844l-53.65625-53.660156 26.984375-26.988281 69.726562 69.730469c5.855469 5.855468 15.355469 5.855468 21.214844 0 5.855469-5.859376 5.855469-15.355469 0-21.214844l-69.726563-69.726563 26.988282-26.988281 51.707031 51.710938c13.132813 13.132812 39.339844 25.929687 68.878906 13.699218 23.699219-9.816406 39.011719-32.738281 39.011719-58.394531v-140.695313c0-25.988281-21.144531-47.132812-47.132812-47.132812zm-80.335938 94.265625c-8.277344 0-15-6.726563-15-15 0-8.277344 6.722656-15 15-15 8.28125 0 15 6.722656 15 15 0 8.273437-6.71875 15-15 15zm0 0"/></svg>